<svg xmlns="http://www.w3.org/2000/svg" width="140" height="40" viewBox="0 0 140 40" fill="none"><g style="mix-blend-mode:luminosity"><path opacity="0.2" d="M26.652 19.9998C24.1969 22.8128 20.6291 24.5832 16.6581 24.5832C12.687 24.5832 9.11918 22.8128 6.66406 19.9998C9.11918 17.1868 12.687 15.4165 16.6581 15.4165C20.6291 15.4165 24.1969 17.1868 26.652 19.9998Z" fill="#1D2025"></path><path fill-rule="evenodd" clip-rule="evenodd" d="M3.25 29.1665C3.25 21.5726 9.25302 15.4165 16.6581 15.4165C12.6871 15.4165 9.11927 17.1868 6.66415 19.9998C9.11927 22.8128 12.6871 24.5832 16.6581 24.5832C20.6292 24.5832 24.197 22.8128 26.6521 19.9998C28.7752 22.4325 30.0662 25.6449 30.0662 29.1665V34.3609C30.0662 35.0359 29.5326 35.5831 28.8744 35.5831H4.44183C3.7836 35.5831 3.25 35.0359 3.25 34.3609V29.1665Z" fill="#1D2025"></path><path fill-rule="evenodd" clip-rule="evenodd" d="M11.6289 23.5827C9.7144 22.7877 8.01967 21.5524 6.66415 19.9993C9.11927 17.1863 12.6871 15.416 16.6581 15.416C20.6292 15.416 24.197 17.1863 26.6521 19.9993C28.7752 17.5667 30.0662 14.3543 30.0662 10.8327V5.63824C30.0662 4.96323 29.5326 4.41602 28.8744 4.41602H4.44183C3.7836 4.41602 3.25 4.96322 3.25 5.63824V10.8327C3.25 16.6027 6.71573 21.5426 11.6289 23.5827Z" fill="#1D2025"></path><path d="M51.0094 13.2393V27.0829H48.3018V21.1924H42.5191V27.0829H39.8115V13.2393H42.5191V18.9314H48.3018V13.2393H51.0094Z" fill="#1D2025"></path><path d="M58.4316 27.2611C57.4002 27.2611 56.4718 27.0298 55.6467 26.567C54.8215 26.091 54.1704 25.4233 53.6933 24.5638C53.2291 23.7044 52.9971 22.7127 52.9971 21.5888C52.9971 20.4649 53.2356 19.4733 53.7126 18.6138C54.2026 17.7544 54.8666 17.0933 55.7047 16.6305C56.5428 16.1545 57.4775 15.9165 58.509 15.9165C59.5405 15.9165 60.4753 16.1545 61.3133 16.6305C62.1514 17.0933 62.809 17.7544 63.286 18.6138C63.776 19.4733 64.021 20.4649 64.021 21.5888C64.021 22.7127 63.7695 23.7044 63.2667 24.5638C62.7767 25.4233 62.1063 26.091 61.2553 26.567C60.4172 27.0298 59.476 27.2611 58.4316 27.2611ZM58.4316 24.8415C58.9216 24.8415 59.3793 24.7225 59.8048 24.4845C60.2432 24.2333 60.5913 23.863 60.8492 23.3738C61.107 22.8846 61.236 22.2896 61.236 21.5888C61.236 20.5443 60.9652 19.7443 60.4237 19.189C59.8951 18.6204 59.2439 18.3361 58.4703 18.3361C57.6967 18.3361 57.0456 18.6204 56.517 19.189C56.0012 19.7443 55.7434 20.5443 55.7434 21.5888C55.7434 22.6334 55.9948 23.4399 56.4976 24.0085C57.0134 24.5638 57.658 24.8415 58.4316 24.8415Z" fill="#1D2025"></path><path d="M76.1227 16.0952V27.0828H73.3958V25.6945C73.0476 26.1705 72.5899 26.5473 72.0226 26.825C71.4682 27.0895 70.8622 27.2217 70.2046 27.2217C69.3666 27.2217 68.6252 27.0432 67.9805 26.6862C67.3358 26.316 66.8265 25.7805 66.4526 25.0797C66.0916 24.3657 65.9111 23.5195 65.9111 22.541V16.0952H68.6187V22.1443C68.6187 23.017 68.8315 23.6913 69.257 24.1673C69.6825 24.6301 70.2627 24.8615 70.9976 24.8615C71.7454 24.8615 72.3321 24.6301 72.7575 24.1673C73.183 23.6913 73.3958 23.017 73.3958 22.1443V16.0952H76.1227Z" fill="#1D2025"></path><path d="M81.5016 17.8008C81.8497 17.2191 82.301 16.7629 82.8554 16.4323C83.4227 16.1018 84.0674 15.9365 84.7894 15.9365V18.852H84.0738C83.2229 18.852 82.5782 19.057 82.1398 19.4668C81.7143 19.8767 81.5016 20.5907 81.5016 21.6088V27.0828H78.7939V16.0952H81.5016V17.8008Z" fill="#1D2025"></path><path d="M90.8101 15.9165C91.6094 15.9165 92.3121 16.0818 92.9181 16.4123C93.5241 16.7296 94.0012 17.1461 94.3493 17.6618V16.095H97.0763V27.162C97.0763 28.1801 96.8764 29.0858 96.4767 29.8791C96.077 30.6857 95.4775 31.3204 94.6781 31.7831C93.8787 32.2591 92.9117 32.4971 91.7771 32.4971C90.2556 32.4971 89.005 32.1335 88.0251 31.4063C87.0581 30.6791 86.5101 29.6874 86.3811 28.4313H89.0694C89.2113 28.9338 89.5143 29.3304 89.9784 29.6213C90.4555 29.9254 91.0292 30.0775 91.6997 30.0775C92.4862 30.0775 93.1244 29.8329 93.6144 29.3436C94.1043 28.8676 94.3493 28.1404 94.3493 27.162V25.4563C94.0012 25.972 93.5177 26.4017 92.8988 26.7455C92.2928 27.0893 91.5966 27.2611 90.8101 27.2611C89.9075 27.2611 89.0823 27.0231 88.3345 26.5471C87.5867 26.0711 86.9936 25.4034 86.5552 24.544C86.1297 23.6713 85.917 22.673 85.917 21.5491C85.917 20.4385 86.1297 19.4534 86.5552 18.594C86.9936 17.7345 87.5802 17.0734 88.3152 16.6106C89.063 16.1479 89.8946 15.9165 90.8101 15.9165ZM94.3493 21.5888C94.3493 20.9145 94.2204 20.3393 93.9625 19.8633C93.7046 19.3741 93.3565 19.0039 92.9181 18.7526C92.4798 18.4882 92.0091 18.356 91.5063 18.356C91.0035 18.356 90.5393 18.4816 90.1138 18.7328C89.6883 18.984 89.3402 19.3543 89.0694 19.8435C88.8116 20.3195 88.6826 20.888 88.6826 21.5491C88.6826 22.2103 88.8116 22.792 89.0694 23.2945C89.3402 23.7837 89.6883 24.1605 90.1138 24.425C90.5522 24.6894 91.0163 24.8216 91.5063 24.8216C92.0091 24.8216 92.4798 24.696 92.9181 24.4448C93.3565 24.1804 93.7046 23.8101 93.9625 23.3341C94.2204 22.8449 94.3493 22.2631 94.3493 21.5888Z" fill="#1D2025"></path><path d="M102.428 12.4067V27.0833H99.7207V12.4067H102.428Z" fill="#1D2025"></path><path d="M104.407 21.5491C104.407 20.4385 104.62 19.4534 105.045 18.594C105.484 17.7345 106.07 17.0734 106.805 16.6106C107.553 16.1479 108.385 15.9165 109.3 15.9165C110.1 15.9165 110.796 16.0818 111.389 16.4123C111.995 16.7429 112.478 17.1594 112.839 17.6618V16.095H115.566V27.0826H112.839V25.4761C112.491 25.9918 112.008 26.4215 111.389 26.7653C110.783 27.0959 110.08 27.2611 109.281 27.2611C108.378 27.2611 107.553 27.0231 106.805 26.5471C106.07 26.0711 105.484 25.4034 105.045 24.544C104.62 23.6713 104.407 22.673 104.407 21.5491ZM112.839 21.5888C112.839 20.9145 112.711 20.3393 112.453 19.8633C112.195 19.3741 111.847 19.0039 111.408 18.7526C110.97 18.4882 110.499 18.356 109.996 18.356C109.494 18.356 109.029 18.4816 108.604 18.7328C108.179 18.984 107.83 19.3543 107.56 19.8435C107.302 20.3195 107.173 20.888 107.173 21.5491C107.173 22.2103 107.302 22.792 107.56 23.2945C107.83 23.7837 108.179 24.1605 108.604 24.425C109.042 24.6894 109.507 24.8216 109.996 24.8216C110.499 24.8216 110.97 24.696 111.408 24.4448C111.847 24.1804 112.195 23.8101 112.453 23.3341C112.711 22.8449 112.839 22.2631 112.839 21.5888Z" fill="#1D2025"></path><path d="M122.311 27.2611C121.434 27.2611 120.648 27.1025 119.952 26.7851C119.255 26.4546 118.701 26.0116 118.288 25.4563C117.889 24.901 117.669 24.2861 117.631 23.6118H120.358C120.409 24.0349 120.609 24.3853 120.957 24.663C121.318 24.9406 121.763 25.0795 122.292 25.0795C122.807 25.0795 123.207 24.9737 123.491 24.7621C123.787 24.5506 123.936 24.2795 123.936 23.949C123.936 23.592 123.755 23.3275 123.394 23.1556C123.046 22.9705 122.485 22.7722 121.712 22.5606C120.912 22.3623 120.255 22.1574 119.739 21.9458C119.236 21.7343 118.798 21.4103 118.424 20.974C118.063 20.5376 117.882 19.9493 117.882 19.2088C117.882 18.6006 118.05 18.0453 118.385 17.5428C118.733 17.0404 119.223 16.6437 119.855 16.3528C120.5 16.0619 121.254 15.9165 122.118 15.9165C123.394 15.9165 124.413 16.247 125.173 16.9081C125.934 17.556 126.353 18.4353 126.431 19.546H123.839C123.8 19.1096 123.62 18.7659 123.297 18.5146C122.988 18.2502 122.569 18.118 122.04 18.118C121.55 18.118 121.17 18.2105 120.899 18.3956C120.641 18.5808 120.512 18.8386 120.512 19.1691C120.512 19.5394 120.693 19.8236 121.054 20.022C121.415 20.2071 121.976 20.3988 122.737 20.5971C123.51 20.7955 124.148 21.0004 124.651 21.212C125.154 21.4235 125.586 21.7541 125.947 22.2036C126.321 22.64 126.514 23.2218 126.527 23.949C126.527 24.5836 126.353 25.1522 126.005 25.6546C125.67 26.1571 125.18 26.5538 124.535 26.8446C123.903 27.1223 123.162 27.2611 122.311 27.2611Z" fill="#1D2025"></path><path d="M132.85 27.2611C131.973 27.2611 131.187 27.1025 130.49 26.7851C129.794 26.4546 129.24 26.0116 128.827 25.4563C128.427 24.901 128.208 24.2861 128.17 23.6118H130.897C130.948 24.0349 131.148 24.3853 131.496 24.663C131.857 24.9406 132.302 25.0795 132.831 25.0795C133.346 25.0795 133.746 24.9737 134.03 24.7621C134.326 24.5506 134.475 24.2795 134.475 23.949C134.475 23.592 134.294 23.3275 133.933 23.1556C133.585 22.9705 133.024 22.7722 132.25 22.5606C131.451 22.3623 130.793 22.1574 130.278 21.9458C129.775 21.7343 129.336 21.4103 128.963 20.974C128.602 20.5376 128.421 19.9493 128.421 19.2088C128.421 18.6006 128.589 18.0453 128.924 17.5428C129.272 17.0404 129.762 16.6437 130.394 16.3528C131.038 16.0619 131.793 15.9165 132.657 15.9165C133.933 15.9165 134.952 16.247 135.712 16.9081C136.473 17.556 136.892 18.4353 136.969 19.546H134.378C134.339 19.1096 134.159 18.7659 133.836 18.5146C133.527 18.2502 133.108 18.118 132.579 18.118C132.089 18.118 131.709 18.2105 131.438 18.3956C131.18 18.5808 131.051 18.8386 131.051 19.1691C131.051 19.5394 131.232 19.8236 131.593 20.022C131.954 20.2071 132.515 20.3988 133.275 20.5971C134.049 20.7955 134.687 21.0004 135.19 21.212C135.693 21.4235 136.125 21.7541 136.486 22.2036C136.86 22.64 137.053 23.2218 137.066 23.949C137.066 24.5836 136.892 25.1522 136.544 25.6546C136.209 26.1571 135.719 26.5538 135.074 26.8446C134.442 27.1223 133.701 27.2611 132.85 27.2611Z" fill="#1D2025"></path></g></svg>