<svg xmlns="http://www.w3.org/2000/svg" width="140" height="40" viewBox="0 0 140 40" fill="none"><g style="mix-blend-mode:luminosity"><path fill-rule="evenodd" clip-rule="evenodd" d="M25.111 5.4419C24.7632 5.36832 24.4045 5.36832 24.0567 5.4419C23.6547 5.52694 23.2954 5.73396 23.0097 5.89854L22.9318 5.94329L13.2502 11.4759C13.2234 11.4912 13.1958 11.5068 13.1675 11.5229C12.8651 11.6942 12.4849 11.9096 12.1929 12.2355C11.9405 12.5173 11.7495 12.8513 11.6326 13.2151C11.4974 13.6359 11.499 14.0824 11.5003 14.4376C11.5004 14.4707 11.5005 14.5031 11.5005 14.5346V25.4585C11.5005 25.49 11.5004 25.5224 11.5003 25.5556C11.499 25.9107 11.4974 26.3572 11.6326 26.778C11.7495 27.1419 11.9405 27.4758 12.1929 27.7576C12.4849 28.0835 12.8652 28.299 13.1675 28.4703C13.1958 28.4863 13.2234 28.5019 13.2502 28.5172L22.9318 34.0499L23.0097 34.0946C23.2954 34.2592 23.6547 34.4662 24.0567 34.5513C24.4045 34.6248 24.7632 34.6248 25.111 34.5513C25.513 34.4662 25.8723 34.2592 26.158 34.0946L26.2358 34.0499L35.9175 28.5172C35.9293 28.5105 35.9413 28.5036 35.9535 28.4967C35.9688 28.488 35.9843 28.4792 36.0001 28.4703C36.3025 28.299 36.6827 28.0835 36.9747 27.7576C37.2272 27.4758 37.4182 27.1419 37.5351 26.778C37.6703 26.3572 37.6687 25.9107 37.6674 25.5556C37.6673 25.5224 37.6672 25.49 37.6672 25.4585V14.5346C37.6672 14.5031 37.6673 14.4708 37.6674 14.4376C37.6687 14.0824 37.6703 13.6359 37.5351 13.2151C37.4182 12.8513 37.2272 12.5173 36.9747 12.2355C36.6827 11.9096 36.3025 11.6942 36.0001 11.5229L35.999 11.5222C35.9712 11.5064 35.9439 11.491 35.9175 11.4759L26.2358 5.94329L26.158 5.89854C25.8723 5.73396 25.513 5.52694 25.111 5.4419ZM24.2026 8.29614C24.4009 8.18284 24.5021 8.12559 24.5776 8.08813L24.5838 8.08505L24.5901 8.08813C24.6656 8.12559 24.7668 8.18284 24.9651 8.29614L33.6648 13.2676L24.5838 18.457L15.5029 13.2676L24.2026 8.29614ZM14.1172 15.5548L23.2755 20.7884V31.1672L14.5209 26.1644C14.3117 26.0448 14.2048 25.9831 14.1298 25.9339L14.1235 25.9298L14.123 25.9221C14.1177 25.8308 14.1172 25.7048 14.1172 25.4585V15.5548Z" fill="#1D2025"></path><path d="M49.5749 24.4945H53.7397V27.019H46.3955V13.5933H49.5749V24.4945Z" fill="#1D2025"></path><path d="M56.669 15.2383C56.1112 15.2383 55.6526 15.0726 55.2931 14.7411C54.9461 14.3968 54.7725 13.9761 54.7725 13.4788C54.7725 12.9688 54.9461 12.5481 55.2931 12.2166C55.6526 11.8723 56.1112 11.7002 56.669 11.7002C57.2144 11.7002 57.6606 11.8723 58.0077 12.2166C58.3672 12.5481 58.5469 12.9688 58.5469 13.4788C58.5469 13.9761 58.3672 14.3968 58.0077 14.7411C57.6606 15.0726 57.2144 15.2383 56.669 15.2383ZM58.2494 16.3476V27.0193H55.07V16.3476H58.2494Z" fill="#1D2025"></path><path d="M64.309 16.1943C65.0403 16.1943 65.6787 16.3473 66.2241 16.6533C66.7819 16.9593 67.2097 17.3609 67.5072 17.8581V16.3473H70.6865V26.9999C70.6865 27.9816 70.4943 28.8678 70.1101 29.6583C69.7382 30.4615 69.1617 31.099 68.3808 31.5708C67.6123 32.0425 66.6518 32.2784 65.4991 32.2784C63.962 32.2784 62.7164 31.9023 61.762 31.15C60.8076 30.4105 60.2622 29.4033 60.1258 28.1283H63.2679C63.3671 28.5363 63.6027 28.855 63.9745 29.0845C64.3464 29.3268 64.805 29.4479 65.3504 29.4479C66.0074 29.4479 66.528 29.2503 66.9122 28.855C67.3089 28.4725 67.5072 27.8541 67.5072 26.9999V25.489C67.1973 25.9863 66.7695 26.3943 66.2241 26.713C65.6787 27.019 65.0403 27.172 64.309 27.172C63.4537 27.172 62.6792 26.9489 61.9851 26.5026C61.291 26.0436 60.7393 25.3998 60.3302 24.571C59.9336 23.7295 59.7354 22.7605 59.7354 21.664C59.7354 20.5675 59.9336 19.6049 60.3302 18.7761C60.7393 17.9474 61.291 17.3099 61.9851 16.8636C62.6792 16.4174 63.4537 16.1943 64.309 16.1943ZM67.5072 21.6831C67.5072 20.8671 67.284 20.2233 66.8377 19.7515C66.4039 19.2798 65.871 19.0439 65.2388 19.0439C64.6067 19.0439 64.0675 19.2798 63.6213 19.7515C63.1874 20.2105 62.9705 20.848 62.9705 21.664C62.9705 22.48 63.1874 23.1303 63.6213 23.6148C64.0675 24.0865 64.6067 24.3224 65.2388 24.3224C65.871 24.3224 66.4039 24.0865 66.8377 23.6148C67.284 23.143 67.5072 22.4991 67.5072 21.6831Z" fill="#1D2025"></path><path d="M79.1782 16.2317C80.3681 16.2317 81.3226 16.6397 82.0415 17.4557C82.7604 18.259 83.1199 19.3682 83.1199 20.7835V27.0182H79.9591V21.2233C79.9591 20.5093 79.7794 19.9547 79.4199 19.5595C79.0604 19.1642 78.577 18.9666 77.9697 18.9666C77.3623 18.9666 76.8789 19.1642 76.5194 19.5595C76.16 19.9547 75.9802 20.5093 75.9802 21.2233V27.0182H72.8008V12.8657H75.9802V17.7808C76.3025 17.3091 76.7425 16.933 77.3003 16.6525C77.8581 16.372 78.4841 16.2317 79.1782 16.2317Z" fill="#1D2025"></path><path d="M90.9255 24.2457V27.0188H89.308C88.1552 27.0188 87.2566 26.7319 86.612 26.1582C85.9675 25.5717 85.6452 24.6218 85.6452 23.3086V19.0628H84.3809V16.3471H85.6452V13.7461H88.8246V16.3471H90.907V19.0628H88.8246V23.3468C88.8246 23.6656 88.8989 23.8951 89.0477 24.0353C89.1964 24.1756 89.4443 24.2457 89.7914 24.2457H90.9255Z" fill="#1D2025"></path><path d="M95.6901 17.8573C95.9875 17.3601 96.4152 16.9585 96.973 16.6525C97.5307 16.3465 98.1691 16.1935 98.888 16.1935C99.7428 16.1935 100.518 16.4166 101.212 16.8628C101.906 17.3091 102.452 17.9466 102.848 18.7753C103.257 19.6041 103.462 20.5667 103.462 21.6632C103.462 22.7597 103.257 23.7287 102.848 24.5702C102.452 25.399 101.906 26.0428 101.212 26.5018C100.518 26.9481 99.7428 27.1712 98.888 27.1712C98.1567 27.1712 97.5183 27.0246 96.973 26.7313C96.4276 26.4253 95.9999 26.0237 95.6901 25.5265V27.0182H92.5107V12.8657H95.6901V17.8573ZM100.227 21.6632C100.227 20.8472 100.003 20.2097 99.5568 19.7507C99.1238 19.279 98.5843 19.0431 97.9398 19.0431C97.3076 19.0431 96.7684 19.279 96.3222 19.7507C95.8884 20.2225 95.6715 20.8663 95.6715 21.6823C95.6715 22.4983 95.8884 23.1422 96.3222 23.614C96.7684 24.0857 97.3076 24.3216 97.9398 24.3216C98.5719 24.3216 99.1108 24.0857 99.5568 23.614C100.003 23.1295 100.227 22.4792 100.227 21.6632Z" fill="#1D2025"></path><path d="M109.666 27.172C108.65 27.172 107.733 26.9489 106.915 26.5026C106.109 26.0564 105.471 25.4189 105 24.5901C104.541 23.7614 104.312 22.7924 104.312 21.6831C104.312 20.5866 104.547 19.624 105.018 18.7953C105.489 17.9538 106.134 17.3099 106.952 16.8636C107.77 16.4174 108.687 16.1943 109.704 16.1943C110.72 16.1943 111.637 16.4174 112.455 16.8636C113.273 17.3099 113.918 17.9538 114.389 18.7953C114.86 19.624 115.095 20.5866 115.095 21.6831C115.095 22.7796 114.854 23.7486 114.37 24.5901C113.899 25.4189 113.249 26.0564 112.418 26.5026C111.6 26.9489 110.683 27.172 109.666 27.172ZM109.666 24.3415C110.274 24.3415 110.788 24.112 111.21 23.653C111.643 23.194 111.86 22.5374 111.86 21.6831C111.86 20.8289 111.65 20.1723 111.228 19.7133C110.819 19.2543 110.311 19.0248 109.704 19.0248C109.084 19.0248 108.569 19.2543 108.16 19.7133C107.751 20.1595 107.547 20.8161 107.547 21.6831C107.547 22.5374 107.745 23.194 108.142 23.653C108.551 24.112 109.059 24.3415 109.666 24.3415Z" fill="#1D2025"></path><path d="M122.732 27.0184L120.742 24.054L119.069 27.0184H115.629L119.051 21.5678L115.536 16.3467H119.106L121.096 19.2919L122.769 16.3467H126.209L122.732 21.7208L126.302 27.0184H122.732Z" fill="#1D2025"></path></g></svg>