<svg xmlns="http://www.w3.org/2000/svg" width="140" height="40" viewBox="0 0 140 40" fill="none"><g style="mix-blend-mode:luminosity"><path opacity="0.6" d="M23.6426 26.6775C29.7967 26.6775 34.7855 21.694 34.7855 15.5465C34.7855 14.8498 34.7214 14.168 34.5988 13.5068C33.9369 13.3843 33.2544 13.3203 32.5569 13.3203C26.4029 13.3203 21.4141 18.3038 21.4141 24.4513C21.4141 25.148 21.4781 25.8297 21.6007 26.491C22.2627 26.6134 22.9452 26.6775 23.6426 26.6775Z" fill="#1D2025"></path><path fill-rule="evenodd" clip-rule="evenodd" d="M21.601 26.4914C16.4221 25.5333 12.5 20.9977 12.5 15.5469C12.5 9.39951 17.4888 4.41602 23.6429 4.41602C29.0994 4.41602 33.64 8.33393 34.599 13.5072C33.9371 13.3848 33.2546 13.3207 32.5571 13.3207C26.4031 13.3207 21.4143 18.3042 21.4143 24.4517C21.4143 25.1484 21.4784 25.8302 21.601 26.4914Z" fill="#1D2025"></path><path fill-rule="evenodd" clip-rule="evenodd" d="M23.6425 26.6779C29.7965 26.6779 34.7853 21.6944 34.7853 15.547C34.7853 14.8503 34.7212 14.1685 34.5986 13.5073C39.7775 14.4653 43.6996 19.001 43.6996 24.4518C43.6996 30.5992 38.7108 35.5827 32.5567 35.5827C27.1002 35.5827 22.5596 31.6648 21.6006 26.4915C22.2625 26.6139 22.945 26.6779 23.6425 26.6779Z" fill="#1D2025"></path><path d="M60.3993 27.2526C64.2071 27.2526 66.9513 25.1063 67.2278 21.9188H64.0369C63.7817 23.4488 62.3138 24.4901 60.3993 24.4901C57.9955 24.4901 56.1448 22.8326 56.1448 19.6451C56.1448 16.4576 57.9955 14.7788 60.3993 14.7788C62.2713 14.7788 63.7391 15.8201 63.9518 17.3713H67.2917C66.8875 14.1626 64.1433 12.0376 60.3993 12.0376C56.4213 12.0376 52.9326 14.6301 52.9326 19.6451C52.9326 24.6601 56.3575 27.2526 60.3993 27.2526Z" fill="#1D2025"></path><path d="M73.1494 16.2026C70.2138 16.2026 68.4694 17.9238 68.3418 20.0701H70.9796C71.0222 19.1776 71.6816 18.3701 72.9793 18.3701C74.1918 18.3701 74.8938 18.9863 74.8938 19.8788C74.8938 20.3251 74.6173 20.6651 74.0854 20.6651H72.2773C69.9373 20.6651 68.3631 21.9401 68.3631 24.0438C68.3631 25.8713 69.7884 27.2526 71.8731 27.2526C73.3409 27.2526 74.5322 26.5938 74.8938 25.5951V27.0826H77.8294V20.1976C77.8294 17.7751 75.8511 16.2026 73.1494 16.2026ZM72.6176 25.1063C71.788 25.1063 71.1924 24.6176 71.1924 23.9163C71.1924 23.0876 71.8305 22.5351 72.724 22.5351H74.8938V22.6838C74.8938 24.0438 74.0642 25.1063 72.6176 25.1063Z" fill="#1D2025"></path><path d="M79.8164 31.4176H82.7733V26.1263C83.3477 26.8488 84.39 27.2526 85.6026 27.2526C88.6871 27.2526 90.7719 25.0638 90.7719 21.7276C90.7719 18.3913 88.8573 16.2026 85.8579 16.2026C84.4751 16.2026 83.4115 16.7126 82.7733 17.5413V16.3726H79.8164V31.4176ZM85.241 24.7026C83.6455 24.7026 82.6031 23.5126 82.6031 21.7276C82.6031 19.9213 83.6455 18.7313 85.241 18.7313C86.7939 18.7313 87.8575 19.9213 87.8575 21.7276C87.8575 23.5126 86.7939 24.7026 85.241 24.7026Z" fill="#1D2025"></path><path d="M95.9786 27.2526C98.4887 27.2526 100.148 25.9138 100.148 23.8738C100.148 19.0288 94.2767 21.5151 94.2767 19.3263C94.2767 18.6463 94.8511 18.2851 95.6807 18.2851C96.4891 18.2851 97.3187 18.7738 97.4464 19.6876H100.02C99.914 17.5838 98.1697 16.2026 95.5957 16.2026C93.4046 16.2026 91.7666 17.5413 91.7666 19.4326C91.7666 23.9376 97.5315 21.7913 97.5315 23.9801C97.5315 24.5751 96.8933 25.0213 95.9786 25.0213C94.8724 25.0213 94.1278 24.4263 94.0215 23.4701H91.4688C91.575 25.7863 93.362 27.2526 95.9786 27.2526Z" fill="#1D2025"></path><path d="M111.827 16.3721H108.849V22.2371C108.849 23.5971 107.934 24.6171 106.636 24.6171C105.424 24.6171 104.573 23.6821 104.573 22.3858V16.3721H101.616V23.0446C101.616 25.4883 103.19 27.2521 105.594 27.2521C107.062 27.2521 108.253 26.6146 108.849 25.5946V27.0821H111.827V16.3721Z" fill="#1D2025"></path><path d="M113.954 27.0826H116.911V11.7188H113.954V27.0826Z" fill="#1D2025"></path><path d="M126.204 23.4488C125.97 24.3626 125.183 24.8301 123.992 24.8301C122.502 24.8301 121.545 23.8951 121.332 22.3863H129.033C129.054 22.1526 129.076 21.8338 129.076 21.4301C129.076 18.9863 127.565 16.2026 123.779 16.2026C120.141 16.2026 118.482 18.9863 118.482 21.7063C118.482 24.4051 120.354 27.2526 123.992 27.2526C126.629 27.2526 128.672 25.7651 129.097 23.4488H126.204ZM123.779 18.3701C125.204 18.3701 126.034 19.3263 126.119 20.5163H121.375C121.63 19.0288 122.439 18.3701 123.779 18.3701Z" fill="#1D2025"></path></g></svg>