<svg xmlns="http://www.w3.org/2000/svg" width="140" height="40" viewBox="0 0 140 40" fill="none"><g style="mix-blend-mode:luminosity"><path d="M20.049 16.9652C23.9664 15.1283 27.0323 12.0113 28.7923 8.11508C27.6568 6.9462 26.1806 6.11129 24.591 5.61034L23.7394 5.33203C23.6826 5.44335 23.6258 5.61034 23.6258 5.72167C22.2632 9.50661 19.4813 12.5679 15.7342 14.2934C13.1226 15.518 11.1923 17.7444 10.2839 20.4161L10 21.2511C10.1135 21.3067 10.2839 21.3624 10.3974 21.3624C11.4761 21.752 12.5548 22.2529 13.5768 22.8652C14.9961 20.3605 17.2671 18.2454 20.049 16.9652Z" fill="#1D2025"></path><path d="M36.5138 17.1875C34.4132 20.3045 31.5177 22.8092 27.9409 24.4791C25.0454 25.8149 22.8313 28.3197 21.8093 31.3254L21.5254 32.2716C22.6042 33.2178 23.91 33.9414 25.3293 34.3867L26.1809 34.665C26.2377 34.5537 26.2945 34.3867 26.2945 34.2754C27.6571 30.4905 30.439 27.4291 34.1861 25.7036C36.7977 24.4791 38.7848 22.2526 39.6364 19.5809L39.9203 18.746C38.728 18.412 37.5925 17.8554 36.5138 17.1875Z" fill="#1D2025"></path><path d="M19.2546 29.377C20.6739 26.0373 23.2855 23.3099 26.6352 21.7514C29.701 20.3042 32.2559 18.0778 34.0159 15.3504C32.7101 14.1258 31.6314 12.7343 30.8365 11.0645C28.7359 14.8494 25.443 17.9108 21.412 19.8033C19.0843 20.8608 17.2107 22.6976 16.0752 24.9241C17.3243 26.093 18.3462 27.54 19.141 29.1542C19.141 29.1542 19.1978 29.2656 19.2546 29.377Z" fill="#1D2025"></path><path d="M46.6855 26.6655H56.2531V24.0655H49.7659V12.6655H46.6855V26.6655Z" fill="#1D2025"></path><path d="M66.249 16.5854H63.393V22.1054C63.393 23.3854 62.5158 24.3454 61.2714 24.3454C60.1086 24.3454 59.2926 23.4654 59.2926 22.2454V16.5854H56.457V22.8654C56.457 25.1655 57.9666 26.8254 60.2718 26.8254C61.6794 26.8254 62.8218 26.2254 63.393 25.2654V26.6654H66.249V16.5854Z" fill="#1D2025"></path><path d="M67.3105 26.6653H70.1665V20.9453C70.1665 19.6453 70.9213 18.7853 72.1045 18.7853C73.2061 18.7853 73.8997 19.6453 73.8997 20.9453V26.6653H76.7557V20.9453C76.7557 19.6453 77.5105 18.7853 78.6937 18.7853C79.7953 18.7853 80.5093 19.6453 80.5093 20.9453V26.6653H83.3449V20.0653C83.3449 18.0453 81.8965 16.4253 79.6525 16.4253C78.0001 16.4253 76.7149 17.2853 76.2253 18.2653C75.7357 17.0653 74.6953 16.4253 73.0837 16.4253C71.6965 16.4253 70.7173 17.0853 70.1665 18.0053V16.5853H67.3105V26.6653Z" fill="#1D2025"></path><path d="M84.3174 12.2056V15.1456H87.3366V12.2056H84.3174ZM84.399 26.6656H87.255V16.5856H84.399V26.6656Z" fill="#1D2025"></path><path d="M88.3203 26.6663H91.1763V21.1463C91.1763 19.8463 92.0535 18.9063 93.2979 18.9063C94.4811 18.9063 95.2767 19.7863 95.2767 21.0063V26.6663H98.1327V20.3863C98.1327 18.0663 96.6231 16.4263 94.2975 16.4263C92.8899 16.4263 91.7475 17.0063 91.1763 17.9863V16.5863H88.3203V26.6663Z" fill="#1D2025"></path><path d="M104.089 26.8263C107.251 26.8263 109.516 24.6263 109.516 21.6263C109.516 18.6263 107.251 16.4263 104.089 16.4263C100.927 16.4263 98.6631 18.6263 98.6631 21.6263C98.6631 24.6263 100.927 26.8263 104.089 26.8263ZM104.089 24.4263C102.559 24.4263 101.519 23.2863 101.519 21.6263C101.519 19.9463 102.559 18.8063 104.089 18.8063C105.619 18.8063 106.66 19.9463 106.66 21.6263C106.66 23.2863 105.619 24.4263 104.089 24.4263Z" fill="#1D2025"></path><path d="M119.859 16.5854H117.003V22.1054C117.003 23.3854 116.126 24.3454 114.882 24.3454C113.719 24.3454 112.903 23.4654 112.903 22.2454V16.5854H110.067V22.8654C110.067 25.1655 111.577 26.8254 113.882 26.8254C115.29 26.8254 116.432 26.2254 117.003 25.2654V26.6654H119.859V16.5854Z" fill="#1D2025"></path><path d="M124.675 26.8263C127.082 26.8263 128.673 25.5663 128.673 23.6463C128.673 19.0863 123.043 21.4263 123.043 19.3663C123.043 18.7263 123.594 18.3863 124.389 18.3863C125.164 18.3863 125.96 18.8463 126.082 19.7063H128.551C128.449 17.7263 126.776 16.4263 124.308 16.4263C122.206 16.4263 120.636 17.6863 120.636 19.4663C120.636 23.7063 126.164 21.6863 126.164 23.7463C126.164 24.3063 125.552 24.7263 124.675 24.7263C123.614 24.7263 122.9 24.1663 122.798 23.2663H120.35C120.452 25.4463 122.166 26.8263 124.675 26.8263Z" fill="#1D2025"></path></g></svg>