<svg xmlns="http://www.w3.org/2000/svg" width="140" height="40" viewBox="0 0 140 40" fill="none"><g style="mix-blend-mode:luminosity"><path d="M40.7771 20.1761C40.7771 27.9491 34.4521 34.2595 26.6386 34.2595C18.825 34.2595 12.5 27.9491 12.5 20.1761C12.5 12.4031 18.825 6.09277 26.6386 6.09277C34.4521 6.09277 40.7771 12.4031 40.7771 20.1761Z" stroke="#1D2025" stroke-width="2"></path><path d="M32.1102 25.6285C29.2132 28.5152 25.9462 30.3835 23.0654 31.1216C20.1468 31.8695 17.9193 31.4083 16.6428 30.1363C15.3663 28.8643 14.9034 26.6447 15.6539 23.7364C16.3947 20.8658 18.2696 17.6102 21.1666 14.7235C24.0635 11.8368 27.3306 9.96847 30.2114 9.23031C33.13 8.48246 35.3575 8.9437 36.634 10.2157C37.9104 11.4877 38.3733 13.7073 37.6228 16.6156C36.882 19.4862 35.0072 22.7417 32.1102 25.6285Z" stroke="#1D2025" stroke-width="2"></path><path d="M32.1101 14.7235C35.0071 17.6102 36.882 20.8657 37.6228 23.7364C38.3733 26.6446 37.9105 28.8643 36.6339 30.1363C35.3574 31.4082 33.13 31.8695 30.2115 31.1216C27.3306 30.3835 24.0635 28.5152 21.1665 25.6284C18.2696 22.7417 16.3947 19.4862 15.6539 16.6156C14.9034 13.7073 15.3663 11.4876 16.6427 10.2157C17.9192 8.94371 20.1467 8.48246 23.0653 9.23031C25.9461 9.96847 29.2132 11.8367 32.1101 14.7235Z" stroke="#1D2025" stroke-width="2"></path><path d="M55.6767 27.2526C59.0248 27.2526 61.2853 25.5101 61.2853 22.7263C61.2853 16.8401 53.4375 19.3476 53.4375 16.2451C53.4375 15.3738 54.2266 14.7788 55.4848 14.7788C56.9136 14.7788 57.8092 15.5438 57.9159 16.7126H60.9654C60.8801 13.8863 58.7049 12.0376 55.4848 12.0376C52.4566 12.0376 50.324 13.7801 50.324 16.2451C50.324 22.0888 58.0651 19.8576 58.0651 22.7688C58.0651 23.8951 57.1055 24.4901 55.6767 24.4901C54.0986 24.4901 53.0963 23.5338 52.9684 22.0251H49.8975C50.0255 25.1913 52.286 27.2526 55.6767 27.2526Z" fill="#1D2025"></path><path d="M62.0107 31.4171H64.9749V26.1258C65.5507 26.8483 66.5956 27.2521 67.8112 27.2521C70.9033 27.2521 72.9932 25.0633 72.9932 21.7271C72.9932 18.3908 71.0739 16.2021 68.0671 16.2021C66.6809 16.2021 65.6147 16.7121 64.9749 17.5408V16.3721H62.0107V31.4171ZM67.4486 24.7021C65.8492 24.7021 64.8043 23.5121 64.8043 21.7271C64.8043 19.9208 65.8492 18.7308 67.4486 18.7308C69.0054 18.7308 70.0716 19.9208 70.0716 21.7271C70.0716 23.5121 69.0054 24.7021 67.4486 24.7021Z" fill="#1D2025"></path><path d="M73.71 27.0826H76.6743V21.2176C76.6743 19.8363 77.5912 18.8376 78.8921 18.8376C80.129 18.8376 80.982 19.7726 80.982 21.0688V27.0826H83.9462V20.4101C83.9462 17.9451 82.3681 16.2026 79.9584 16.2026C78.4656 16.2026 77.2927 16.8188 76.6743 17.8601V11.7188H73.71V27.0826Z" fill="#1D2025"></path><path d="M92.2382 23.4483C92.0036 24.3621 91.2146 24.8296 90.0204 24.8296C88.5276 24.8296 87.568 23.8946 87.3547 22.3858H95.0745C95.0958 22.1521 95.1171 21.8333 95.1171 21.4296C95.1171 18.9858 93.603 16.2021 89.8071 16.2021C86.1605 16.2021 84.4971 18.9858 84.4971 21.7058C84.4971 24.4046 86.3737 27.2521 90.0204 27.2521C92.6647 27.2521 94.7119 25.7646 95.1384 23.4483H92.2382ZM89.8071 18.3696C91.2359 18.3696 92.0676 19.3258 92.1529 20.5158H87.3973C87.6533 19.0283 88.4636 18.3696 89.8071 18.3696Z" fill="#1D2025"></path><path d="M102.891 18.8371V16.3721H101.362C100.061 16.3721 99.2509 16.8183 98.6751 18.1571V16.3721H95.6895V27.0821H98.6751V21.8758C98.6751 20.0483 99.3362 18.8371 100.807 18.8371H102.891Z" fill="#1D2025"></path><path d="M113.128 16.3721H110.142V22.2371C110.142 23.5971 109.225 24.6171 107.924 24.6171C106.709 24.6171 105.856 23.6821 105.856 22.3858V16.3721H102.891V23.0446C102.891 25.4883 104.469 27.2521 106.879 27.2521C108.351 27.2521 109.545 26.6146 110.142 25.5946V27.0821H113.128V16.3721Z" fill="#1D2025"></path><path d="M114.407 27.0826H117.371V11.7188H114.407V27.0826Z" fill="#1D2025"></path><path d="M125.834 23.4483C125.599 24.3621 124.81 24.8296 123.616 24.8296C122.123 24.8296 121.164 23.8946 120.951 22.3858H128.67C128.692 22.1521 128.713 21.8333 128.713 21.4296C128.713 18.9858 127.199 16.2021 123.403 16.2021C119.756 16.2021 118.093 18.9858 118.093 21.7058C118.093 24.4046 119.97 27.2521 123.616 27.2521C126.261 27.2521 128.308 25.7646 128.734 23.4483H125.834ZM123.403 18.3696C124.832 18.3696 125.663 19.3258 125.749 20.5158H120.993C121.249 19.0283 122.059 18.3696 123.403 18.3696Z" fill="#1D2025"></path></g></svg>