<svg xmlns="http://www.w3.org/2000/svg" width="132" height="25" viewBox="0 0 132 25" fill="none"><path d="M8.408 1.6H12.904L21.048 24H16.904L15.464 20.032H5.864L4.424 24H0.28L8.408 1.6ZM7.288 16.128H14.024L10.648 6.896L7.288 16.128ZM34.7348 -1.90735e-06H38.6388V24H34.7348V22C34.2228 22.7147 33.5774 23.296 32.7988 23.744C32.0201 24.192 31.1188 24.416 30.0948 24.416C28.9321 24.416 27.8441 24.1973 26.8308 23.76C25.8174 23.3227 24.9214 22.72 24.1428 21.952C23.3748 21.1733 22.7721 20.2773 22.3348 19.264C21.8974 18.2507 21.6788 17.1627 21.6788 16C21.6788 14.8373 21.8974 13.7493 22.3348 12.736C22.7721 11.7227 23.3748 10.832 24.1428 10.064C24.9214 9.28533 25.8174 8.67733 26.8308 8.24C27.8441 7.80267 28.9321 7.584 30.0948 7.584C31.1188 7.584 32.0201 7.808 32.7988 8.256C33.5774 8.69333 34.2228 9.27467 34.7348 10V-1.90735e-06ZM30.1428 20.656C30.9748 20.656 31.7108 20.448 32.3508 20.032C32.9908 19.616 33.4921 19.056 33.8548 18.352C34.2174 17.6373 34.3988 16.8533 34.3988 16C34.3988 15.136 34.2174 14.352 33.8548 13.648C33.4921 12.9333 32.9854 12.368 32.3348 11.952C31.6948 11.536 30.9641 11.328 30.1428 11.328C29.3214 11.328 28.5694 11.5413 27.8868 11.968C27.2148 12.384 26.6761 12.944 26.2708 13.648C25.8761 14.352 25.6788 15.136 25.6788 16C25.6788 16.864 25.8814 17.648 26.2868 18.352C26.6921 19.056 27.2308 19.616 27.9028 20.032C28.5854 20.448 29.3321 20.656 30.1428 20.656ZM52.0115 24H46.9715L41.1475 7.984H45.3075L49.4995 19.504L53.6755 7.984H57.8355L52.0115 24ZM60.2013 8H64.1053V24H60.2013V8ZM62.1853 5.936C61.6093 5.936 61.1239 5.74933 60.7293 5.376C60.3346 4.992 60.1373 4.512 60.1373 3.936C60.1373 3.37067 60.3346 2.896 60.7293 2.512C61.1239 2.128 61.6039 1.936 62.1693 1.936C62.7346 1.936 63.2093 2.128 63.5933 2.512C63.9879 2.896 64.1853 3.37067 64.1853 3.936C64.1853 4.512 63.9933 4.992 63.6093 5.376C63.2253 5.74933 62.7506 5.936 62.1853 5.936ZM72.4213 24.288C71.5893 24.2347 70.7839 24.0693 70.0052 23.792C69.2373 23.504 68.5546 23.1147 67.9573 22.624C67.3599 22.1333 66.9013 21.5467 66.5813 20.864L69.8773 19.456C70.0053 19.6693 70.2133 19.8987 70.5013 20.144C70.7893 20.3787 71.1306 20.576 71.5253 20.736C71.9306 20.896 72.3733 20.976 72.8533 20.976C73.2586 20.976 73.6426 20.9227 74.0052 20.816C74.3786 20.6987 74.6773 20.5227 74.9013 20.288C75.1359 20.0533 75.2533 19.7493 75.2533 19.376C75.2533 18.9813 75.1146 18.6773 74.8373 18.464C74.5706 18.24 74.2293 18.0747 73.8133 17.968C73.4079 17.8507 73.0133 17.744 72.6293 17.648C71.6159 17.4453 70.6719 17.1307 69.7973 16.704C68.9333 16.2773 68.2346 15.728 67.7013 15.056C67.1786 14.3733 66.9173 13.552 66.9173 12.592C66.9173 11.536 67.1946 10.624 67.7493 9.856C68.3146 9.088 69.0453 8.496 69.9413 8.08C70.8479 7.664 71.8239 7.456 72.8693 7.456C74.1386 7.456 75.3013 7.72267 76.3573 8.256C77.4239 8.77867 78.2666 9.52 78.8853 10.48L75.7973 12.304C75.6479 12.048 75.4399 11.8133 75.1733 11.6C74.9066 11.376 74.6026 11.1947 74.2613 11.056C73.9199 10.9067 73.5626 10.8213 73.1893 10.8C72.7093 10.7787 72.2719 10.8213 71.8773 10.928C71.4826 11.0347 71.1626 11.216 70.9173 11.472C70.6826 11.728 70.5653 12.0693 70.5653 12.496C70.5653 12.9013 70.7253 13.2053 71.0453 13.408C71.3653 13.6 71.7493 13.7493 72.1973 13.856C72.6559 13.9627 73.0933 14.08 73.5093 14.208C74.4479 14.5173 75.3279 14.896 76.1493 15.344C76.9813 15.792 77.6479 16.3413 78.1493 16.992C78.6506 17.6427 78.8906 18.4213 78.8693 19.328C78.8693 20.3627 78.5599 21.2693 77.9413 22.048C77.3226 22.816 76.5226 23.4027 75.5413 23.808C74.5706 24.2133 73.5306 24.3733 72.4213 24.288ZM81.2325 8H85.1365V24H81.2325V8ZM83.2165 5.936C82.6405 5.936 82.1552 5.74933 81.7605 5.376C81.3658 4.992 81.1685 4.512 81.1685 3.936C81.1685 3.37067 81.3658 2.896 81.7605 2.512C82.1552 2.128 82.6352 1.936 83.2005 1.936C83.7658 1.936 84.2405 2.128 84.6245 2.512C85.0192 2.896 85.2165 3.37067 85.2165 3.936C85.2165 4.512 85.0245 4.992 84.6405 5.376C84.2565 5.74933 83.7818 5.936 83.2165 5.936ZM88.3425 18.08V8H92.2465V17.056C92.2465 17.6853 92.4012 18.2613 92.7105 18.784C93.0198 19.296 93.4305 19.7067 93.9425 20.016C94.4652 20.3147 95.0358 20.464 95.6545 20.464C96.2945 20.464 96.8705 20.3147 97.3825 20.016C97.8945 19.7067 98.3052 19.296 98.6145 18.784C98.9238 18.2613 99.0785 17.6853 99.0785 17.056V8H102.983L102.999 24H99.0945L99.0785 22.544C98.5238 23.12 97.8678 23.5787 97.1105 23.92C96.3532 24.2507 95.5425 24.416 94.6785 24.416C93.5158 24.416 92.4545 24.1333 91.4945 23.568C90.5345 22.992 89.7665 22.2293 89.1905 21.28C88.6252 20.32 88.3425 19.2533 88.3425 18.08ZM106.201 24V8H110.105V9.424C110.649 8.848 111.3 8.39467 112.057 8.064C112.815 7.72267 113.631 7.552 114.505 7.552C115.615 7.552 116.633 7.81333 117.561 8.336C118.5 8.85867 119.247 9.55733 119.801 10.432C120.367 9.55733 121.113 8.85867 122.041 8.336C122.969 7.81333 123.988 7.552 125.097 7.552C126.271 7.552 127.332 7.84 128.281 8.416C129.241 8.98133 130.004 9.744 130.569 10.704C131.145 11.6533 131.433 12.7147 131.433 13.888V24H127.529V14.928C127.529 14.3093 127.375 13.744 127.065 13.232C126.767 12.7093 126.361 12.2933 125.849 11.984C125.348 11.664 124.783 11.504 124.153 11.504C123.524 11.504 122.953 11.6587 122.441 11.968C121.94 12.2667 121.535 12.672 121.225 13.184C120.916 13.696 120.761 14.2773 120.761 14.928V24H116.857V14.928C116.857 14.2773 116.708 13.696 116.409 13.184C116.111 12.672 115.705 12.2667 115.193 11.968C114.681 11.6587 114.111 11.504 113.481 11.504C112.863 11.504 112.297 11.664 111.785 11.984C111.273 12.2933 110.863 12.7093 110.553 13.232C110.255 13.744 110.105 14.3093 110.105 14.928V24H106.201Z" fill="#05061A"></path></svg>