<svg xmlns="http://www.w3.org/2000/svg" width="66" height="68" viewBox="0 0 66 68" fill="none"><path d="M14.9385 33.3868C14.9651 23.6258 22.8895 15.7352 32.6388 15.7618C42.388 15.7884 50.2692 23.7223 50.2426 33.4833C50.2277 38.908 47.7729 43.7535 43.9221 46.985C43.8672 47.0299 43.814 47.0765 43.7592 47.1214C42.9581 47.822 39.4114 51.3164 38.6835 58.8493C38.7832 58.6496 26.4894 58.816 26.4894 58.816C26.4894 58.816 25.8113 51.5027 21.9937 47.5707C17.6958 44.3342 14.9236 39.1825 14.9385 33.3868Z" fill="#CFA9FF"></path><path d="M30.5349 61.0289C29.5227 56.4629 28.0153 51.9951 26.0558 47.7486C25.6619 46.8966 25.2414 46.0346 24.8359 45.201C23.7855 43.0461 22.6986 40.8197 21.9423 38.4868C21.4604 37.0008 20.9701 35.0489 21.4487 33.117C21.8808 31.3715 23.3866 29.5411 25.4292 29.4196C26.7272 29.3431 28.1 29.9821 29.0989 31.1336C29.1255 31.1635 29.1521 31.1951 29.177 31.2267C29.3532 30.9039 29.5476 30.6044 29.762 30.3232C30.8257 28.9387 32.7985 27.7939 34.8145 28.358C36.4034 28.8023 37.7213 30.2932 38.4326 32.4464C38.539 32.7676 38.6304 33.0937 38.7102 33.4215C39.2869 32.8658 39.9467 32.3965 40.6697 32.0438C41.7134 31.5329 42.6574 31.4514 43.4003 31.8058C44.4507 32.3083 44.9809 33.6262 44.8147 35.3318C44.6169 37.3869 43.8757 39.3287 43.161 41.2057L43.0763 41.4287C40.8292 47.3326 38.7883 53.4011 37.01 59.4647L36.051 59.1835C37.836 53.095 39.8852 47.0014 42.1422 41.0726L42.227 40.8496C42.9184 39.0342 43.6347 37.1556 43.8208 35.2353C43.8674 34.7594 43.9422 33.1736 42.9699 32.7077C42.3915 32.4315 41.6386 32.6827 41.1085 32.9423C40.2758 33.35 39.5395 33.9324 38.9379 34.6313C39.1307 36.0307 39.0825 37.4601 38.7916 38.8512C38.6936 39.3204 38.549 39.8013 38.1584 40.1491C37.8875 40.3904 37.4936 40.5102 37.133 40.4603C36.8189 40.417 36.5579 40.2572 36.395 40.006C36.2288 39.7497 36.2056 39.4702 36.2056 39.2056C36.2039 37.4517 36.8255 35.7345 37.8825 34.3501C37.7878 33.8126 37.6548 33.2818 37.4837 32.7609C37.1978 31.894 36.3385 29.824 34.5452 29.3231C33.2107 28.9504 31.5703 29.6127 30.5548 30.9355C30.2756 31.3 30.0346 31.706 29.8302 32.1619C30.3205 32.9922 30.6445 33.8775 30.8855 34.6196C31.2628 35.7811 31.675 37.3153 31.5121 38.8761C31.4224 39.7397 30.9404 40.6134 30.0712 40.6167C29.757 40.615 29.2917 40.4919 28.8363 39.8912C27.8092 38.5333 27.8773 36.6797 28.0186 35.405C28.1532 34.1853 28.3792 33.152 28.71 32.2634C28.597 32.102 28.4756 31.9439 28.3443 31.7942C27.5466 30.8756 26.4779 30.3631 25.489 30.423C23.9284 30.5162 22.7634 31.9722 22.4193 33.3616C22.0022 35.0473 22.4542 36.8228 22.8947 38.1823C23.6293 40.4486 24.6996 42.6434 25.735 44.7667C26.1439 45.6053 26.566 46.4723 26.9649 47.3342C28.9543 51.6456 30.485 56.1817 31.5121 60.8176L30.5349 61.0289ZM29.3764 33.4548C29.2136 34.0655 29.0922 34.7478 29.0091 35.5115C28.8778 36.7096 28.828 38.2222 29.6307 39.2838C29.787 39.4902 29.9482 39.6133 30.0645 39.6133C30.2822 39.6133 30.4734 39.1773 30.5149 38.7696C30.6578 37.3968 30.2789 35.9941 29.9316 34.9258C29.7786 34.4532 29.6008 33.9507 29.3764 33.4548ZM38.0454 35.9242C37.5053 36.9276 37.2011 38.0558 37.2028 39.2023C37.2028 39.3437 37.2127 39.4302 37.231 39.4585C37.2593 39.4768 37.4055 39.4752 37.492 39.397C37.6665 39.2422 37.7479 38.9427 37.8111 38.6415C38.0005 37.748 38.077 36.8344 38.0454 35.9242Z" fill="white"></path><path d="M31.4059 67.234L34.218 67.2423C35.4196 67.2457 36.3952 66.2739 36.3985 65.0708L36.4052 62.8793L29.242 62.8594L29.2354 65.0509C29.2337 66.2523 30.2043 67.2307 31.4059 67.234Z" fill="#05061A"></path><path d="M38.7355 58.3448L38.6973 62.0172C38.679 63.7528 37.2663 65.1472 35.5345 65.1439L29.5447 65.1272C27.7946 65.1223 26.3836 63.6929 26.3986 61.9424L26.4285 58.3115L38.7355 58.3448Z" fill="#05061A"></path><path d="M32.9634 12.9727C32.9617 12.9727 32.9618 12.9727 32.9601 12.9727C32.3119 12.971 31.7884 12.4435 31.79 11.7946L31.8183 1.3863C31.82 0.739009 32.3452 0.214844 32.9917 0.214844C32.9933 0.214844 32.9933 0.214844 32.995 0.214844C33.6432 0.216508 34.1667 0.743987 34.165 1.39295L34.1368 11.8012C34.1351 12.4485 33.6099 12.9727 32.9634 12.9727Z" fill="#CFA9FF"></path><path d="M19.8768 16.9014C19.4829 16.9014 19.0973 16.7034 18.8763 16.3423L12.9064 6.6246C12.5674 6.07216 12.7385 5.34832 13.292 5.00721C13.8438 4.66775 14.5667 4.83913 14.9074 5.39324L20.8773 15.111C21.2164 15.6634 21.0452 16.3873 20.4917 16.7284C20.299 16.8465 20.0862 16.9014 19.8768 16.9014Z" fill="#CFA9FF"></path><path d="M13.046 29.0634C12.9097 29.0634 12.7701 29.0385 12.6338 28.9885L1.18436 24.6871C0.577734 24.4591 0.270264 23.7819 0.497957 23.1745C0.72565 22.5672 1.40208 22.2593 2.00871 22.4873L13.4582 26.7887C14.0648 27.0167 14.3723 27.694 14.1446 28.3013C13.9684 28.7739 13.5213 29.0634 13.046 29.0634Z" fill="#CFA9FF"></path><path d="M45.7921 16.973C45.5811 16.973 45.365 16.9164 45.1722 16.795C44.6221 16.4522 44.4542 15.7267 44.7966 15.1759L50.8197 5.48978C51.162 4.939 51.8867 4.77093 52.4368 5.11372C52.9869 5.4565 53.1548 6.18202 52.8124 6.7328L46.7893 16.4189C46.5666 16.7767 46.1844 16.973 45.7921 16.973Z" fill="#CFA9FF"></path><path d="M52.5566 29.1717C52.0797 29.1717 51.6309 28.8772 51.4547 28.403C51.2304 27.7939 51.5412 27.1183 52.1495 26.8937L63.6222 22.6555C64.2305 22.4309 64.9053 22.7421 65.1296 23.3511C65.354 23.9601 65.0432 24.6357 64.4349 24.8603L52.9622 29.0985C52.8292 29.1484 52.6913 29.1717 52.5566 29.1717Z" fill="#CFA9FF"></path></svg>