<svg xmlns="http://www.w3.org/2000/svg" width="123" height="128" viewBox="0 0 123 128" fill="none"><path d="M27.5133 62.8665C27.5637 44.3661 42.5831 29.4106 61.0613 29.4611C79.5395 29.5115 94.4771 44.549 94.4267 63.0495C94.3983 73.331 89.7457 82.515 82.447 88.6397C82.3431 88.7249 82.2423 88.8132 82.1383 88.8984C80.62 90.2261 73.8978 96.8492 72.5181 111.127C72.7071 110.748 49.4061 111.064 49.4061 111.064C49.4061 111.064 48.1209 97.2024 40.8853 89.7499C32.7392 83.6157 27.4849 73.8514 27.5133 62.8665Z" fill="url(#paint0_linear_1_3679)"></path><path d="M57.0734 115.256C55.155 106.602 52.2979 98.1338 48.584 90.0852C47.8374 88.4704 47.0405 86.8367 46.2719 85.2566C44.281 81.1724 42.2209 76.9526 40.7876 72.5309C39.8741 69.7145 38.9449 66.015 39.8521 62.3534C40.6711 59.0451 43.525 55.5758 47.3964 55.3456C49.8566 55.2005 52.4586 56.4116 54.3517 58.594C54.4021 58.6508 54.4525 58.7108 54.4998 58.7707C54.8337 58.1588 55.2023 57.5911 55.6086 57.0581C57.6246 54.4341 61.3638 52.2643 65.1848 53.3335C68.1962 54.1755 70.6942 57.0014 72.0424 61.0824C72.244 61.6911 72.4173 62.3093 72.5685 62.9306C73.6615 61.8772 74.9121 60.9878 76.2824 60.3192C78.2606 59.351 80.0498 59.1964 81.4579 59.8682C83.4487 60.8207 84.4536 63.3185 84.1386 66.5512C83.7638 70.4462 82.3588 74.1267 81.0043 77.6843L80.8437 78.1069C76.5848 89.2967 72.7165 100.799 69.346 112.291L67.5284 111.758C70.9115 100.218 74.7956 88.6691 79.0733 77.432L79.234 77.0093C80.5444 73.5685 81.9021 70.0078 82.2549 66.3683C82.3431 65.4663 82.4848 62.4607 80.642 61.5776C79.5458 61.0541 78.1189 61.5303 77.114 62.0223C75.5358 62.795 74.1404 63.8988 73 65.2234C73.3654 67.8758 73.2741 70.5849 72.7228 73.2216C72.537 74.1109 72.2629 75.0224 71.5227 75.6816C71.0092 76.1389 70.2626 76.366 69.5791 76.2713C68.9837 76.1893 68.4892 75.8866 68.1805 75.4103C67.8654 74.9247 67.8214 74.3948 67.8214 73.8933C67.8182 70.5692 68.9963 67.3144 70.9998 64.6904C70.8202 63.6718 70.5682 62.6657 70.2437 61.6785C69.7019 60.0354 68.0734 56.112 64.6744 55.1627C62.145 54.4562 59.0359 55.7114 57.1112 58.2188C56.582 58.9094 56.1252 59.679 55.7378 60.5431C56.667 62.1169 57.2813 63.7947 57.738 65.2014C58.4531 67.4027 59.2343 70.3106 58.9256 73.2689C58.7555 74.9057 57.842 76.5615 56.1945 76.5678C55.5992 76.5647 54.7172 76.3312 53.854 75.1927C51.9073 72.6192 52.0365 69.1058 52.3042 66.69C52.5594 64.3782 52.9878 62.4197 53.6146 60.7355C53.4004 60.4296 53.1705 60.13 52.9216 59.8461C51.4096 58.1052 49.3841 57.1338 47.5098 57.2474C44.5519 57.424 42.3438 60.1836 41.6917 62.817C40.901 66.0119 41.7578 69.3771 42.5926 71.9537C43.9849 76.2493 46.0136 80.4092 47.976 84.4335C48.751 86.023 49.5511 87.6662 50.3071 89.2999C54.0777 97.4715 56.9789 106.069 58.9256 114.855L57.0734 115.256ZM54.8778 62.9937C54.5691 64.1511 54.3391 65.4442 54.1816 66.8918C53.9328 69.1626 53.8383 72.0294 55.3598 74.0416C55.6559 74.4327 55.9614 74.666 56.1819 74.666C56.5946 74.666 56.9568 73.8397 57.0356 73.067C57.3065 70.4651 56.5883 67.8064 55.9299 65.7817C55.6401 64.886 55.3031 63.9335 54.8778 62.9937ZM71.3085 67.674C70.2847 69.5757 69.7082 71.7141 69.7114 73.8871C69.7114 74.1551 69.7303 74.3191 69.7649 74.3727C69.8185 74.4074 70.0957 74.4043 70.2595 74.256C70.5902 73.9627 70.7446 73.3951 70.8643 72.8242C71.2234 71.1306 71.3683 69.3991 71.3085 67.674Z" fill="url(#paint1_linear_1_3679)"></path><path d="M58.7233 127.018L64.0532 127.034C66.3307 127.04 68.1798 125.198 68.1861 122.918L68.1987 118.764L54.622 118.727L54.6094 122.88C54.6062 125.157 56.4459 127.012 58.7233 127.018Z" fill="#D3B0FF"></path><path d="M72.6155 110.169L72.543 117.129C72.5084 120.419 69.8308 123.061 66.5485 123.055L55.1957 123.024C51.8787 123.014 49.2043 120.305 49.2326 116.987L49.2893 110.105L72.6155 110.169Z" fill="#EEE1FF"></path><path d="M61.6756 24.1727C61.6725 24.1727 61.6725 24.1727 61.6693 24.1727C60.4408 24.1696 59.4485 23.1698 59.4517 21.9398L59.5052 2.2125C59.5084 0.98566 60.5038 -0.0078125 61.7292 -0.0078125C61.7323 -0.0078125 61.7323 -0.0078125 61.7355 -0.0078125C62.964 -0.00465866 63.9562 0.995095 63.9531 2.22509L63.8995 21.9524C63.8964 23.1792 62.901 24.1727 61.6756 24.1727Z" fill="#CFA9FF" fill-opacity="0.2"></path><path d="M36.8716 31.618C36.1251 31.618 35.3943 31.2427 34.9753 30.5583L23.6603 12.1398C23.0177 11.0928 23.3422 9.72084 24.3911 9.0743C25.437 8.43092 26.8072 8.75575 27.453 9.80598L38.768 28.2244C39.4106 29.2715 39.0861 30.6434 38.0371 31.2899C37.6717 31.5139 37.2685 31.618 36.8716 31.618Z" fill="#CFA9FF" fill-opacity="0.2"></path><path d="M23.9252 54.669C23.6669 54.669 23.4023 54.6217 23.144 54.5271L1.44332 46.3744C0.293554 45.9423 -0.289206 44.6587 0.142351 43.5076C0.573907 42.3564 1.85598 41.7729 3.00574 42.205L24.7064 50.3577C25.8562 50.7898 26.439 52.0734 26.0074 53.2246C25.6735 54.1203 24.8261 54.669 23.9252 54.669Z" fill="#CFA9FF" fill-opacity="0.2"></path><path d="M85.9903 31.7537C85.5903 31.7537 85.1808 31.6464 84.8154 31.4162C83.7727 30.7665 83.4545 29.3915 84.1035 28.3475L95.5192 9.98899C96.1681 8.94507 97.5416 8.62653 98.5842 9.27622C99.6269 9.92591 99.9451 11.301 99.2961 12.3449L87.8804 30.7034C87.4582 31.3815 86.7337 31.7537 85.9903 31.7537Z" fill="#CFA9FF" fill-opacity="0.2"></path><path d="M98.8111 54.8755C97.9071 54.8755 97.0566 54.3173 96.7227 53.4185C96.2974 52.2641 96.8865 50.9837 98.0394 50.5579L119.784 42.5251C120.937 42.0993 122.216 42.6891 122.641 43.8434C123.067 44.9977 122.477 46.2781 121.325 46.7039L99.5798 54.7367C99.3278 54.8314 99.0663 54.8755 98.8111 54.8755Z" fill="#CFA9FF" fill-opacity="0.2"></path><defs><linearGradient id="paint0_linear_1_3679" x1="60.97" y1="29.4609" x2="60.97" y2="111.127" gradientUnits="userSpaceOnUse"><stop stop-color="#CFA9FF" stop-opacity="0.4"></stop><stop offset="0.85" stop-color="#CFA9FF" stop-opacity="0"></stop></linearGradient><linearGradient id="paint1_linear_1_3679" x1="61.8383" y1="53.0547" x2="61.8383" y2="115.256" gradientUnits="userSpaceOnUse"><stop offset="0.15" stop-color="#CFA9FF" stop-opacity="0.5"></stop><stop offset="1" stop-color="#CFA9FF"></stop></linearGradient></defs></svg>