<svg xmlns="http://www.w3.org/2000/svg" width="211" height="185" viewBox="0 0 211 185" fill="none"><path d="M65.7765 104L51.5522 79.3405L36.1751 103.289L37.4502 74.8011L11.6548 86.5771L28.0252 63.3063L0 59.1711L26.2676 48.5054L4.91255 29.7728L32.7371 35.0972L24.8304 7.7146L45.38 27.3399L53.4321 0L60.1807 27.6961L81.6349 9.07874L72.4402 36.052L100.486 32.0697L78.2676 49.7543L104 61.6701L75.8113 64.4541L91.0598 88.4853L65.8524 75.4839L65.7765 104Z" fill="#FEDE65"></path><path d="M210.34 54.8576V169.578C210.34 177.281 204.103 183.524 196.411 183.524H56.1384C48.4484 183.524 42.2119 177.281 42.2119 169.578V54.8576C42.2119 47.1541 48.4484 40.9111 56.1384 40.9111H196.411C204.103 40.9111 210.34 47.1542 210.34 54.8576Z" fill="white" stroke="#05061A"></path><path d="M210.34 54.8467H42.2119C42.2178 47.1483 48.452 40.9111 56.1384 40.9111H196.411C204.1 40.9111 210.334 47.1483 210.34 54.8467Z" fill="white" stroke="#05061A"></path><path d="M193.052 48.5974C193.052 49.9212 191.981 50.9932 190.66 50.9932C189.339 50.9932 188.268 49.9211 188.268 48.5974C188.268 47.2737 189.339 46.2017 190.66 46.2017C191.981 46.2017 193.052 47.2737 193.052 48.5974Z" fill="#5A5A64" stroke="#05061A"></path><path d="M184.856 48.5974C184.856 49.9212 183.784 50.9932 182.464 50.9932C181.143 50.9932 180.071 49.9211 180.071 48.5974C180.071 47.2737 181.143 46.2017 182.464 46.2017C183.784 46.2017 184.856 47.2737 184.856 48.5974Z" fill="#5A5A64" stroke="#05061A"></path><path d="M176.662 48.5974C176.662 49.9212 175.59 50.9932 174.269 50.9932C172.949 50.9932 171.877 49.9211 171.877 48.5974C171.877 47.2737 172.949 46.2017 174.269 46.2017C175.59 46.2017 176.662 47.2737 176.662 48.5974Z" fill="#5A5A64" stroke="#05061A"></path><path d="M119.953 171.472H56.2295V115.916H119.953V159.221V171.472Z" fill="white"></path><path d="M100.906 112.217H75.2754V119.615H100.906V112.217Z" fill="#5A5A64"></path><path d="M112.428 123.787H103.877V124.601H112.428V123.787Z" fill="#5A5A64"></path><path d="M99.2939 123.787H78.707V124.601H99.2939V123.787Z" fill="#5A5A64"></path><path d="M70.1425 123.787H61.5615V124.601H70.1425V123.787Z" fill="#5A5A64"></path><path d="M112.428 128.772H92.1133V129.587H112.428V128.772Z" fill="#5A5A64"></path><path d="M84.328 128.772H61.5615V129.587H84.328V128.772Z" fill="#5A5A64"></path><path d="M112.428 133.76H101.975V134.575H112.428V133.76Z" fill="#5A5A64"></path><path d="M97.8227 133.76H72.9453V134.575H97.8227V133.76Z" fill="#5A5A64"></path><path d="M65.852 133.76H61.5615V134.575H65.852V133.76Z" fill="#5A5A64"></path><path d="M112.428 140.142H103.877V140.956H112.428V140.142Z" fill="#5A5A64"></path><path d="M99.2939 140.142H78.707V140.956H99.2939V140.142Z" fill="#5A5A64"></path><path d="M70.1425 140.142H61.5615V140.956H70.1425V140.142Z" fill="#5A5A64"></path><path d="M112.428 145.129H92.1133V145.944H112.428V145.129Z" fill="#5A5A64"></path><path d="M84.328 145.129H61.5615V145.944H84.328V145.129Z" fill="#5A5A64"></path><path d="M112.428 150.115H101.975V150.929H112.428V150.115Z" fill="#5A5A64"></path><path d="M97.8227 150.115H72.9453V150.929H97.8227V150.115Z" fill="#5A5A64"></path><path d="M65.852 150.115H61.5615V150.929H65.852V150.115Z" fill="#5A5A64"></path><path d="M112.428 155.675H97.0566V156.49H112.428V155.675Z" fill="#5A5A64"></path><path d="M91.7016 155.675H78.707V156.49H91.7016V155.675Z" fill="#5A5A64"></path><path d="M70.1425 155.675H61.5615V156.49H70.1425V155.675Z" fill="#5A5A64"></path><path d="M112.428 160.661H87.0273V161.476H112.428V160.661Z" fill="#5A5A64"></path><path d="M74.2944 160.661H61.5615V161.476H74.2944V160.661Z" fill="#5A5A64"></path><path d="M112.428 165.648H101.975V166.463H112.428V165.648Z" fill="#5A5A64"></path><path d="M97.5311 165.648H72.9453V166.463H97.5311V165.648Z" fill="#5A5A64"></path><path d="M65.852 165.648H61.5615V166.463H65.852V165.648Z" fill="#5A5A64"></path><path d="M63.3226 105.66C63.2501 105.66 63.1762 105.633 63.1192 105.579C62.9987 105.466 62.9922 105.278 63.1049 105.158L75.1043 92.3083C75.1665 92.2409 75.2559 92.2071 75.3479 92.2149L86.6035 93.1789L92.7458 81.9279C92.8067 81.8176 92.9298 81.7566 93.0542 81.7761L104.537 83.5821L112.63 73.936C112.737 73.8101 112.924 73.7933 113.05 73.8997C113.176 74.006 113.193 74.1942 113.086 74.32L104.885 84.0945C104.818 84.175 104.714 84.2139 104.61 84.197L93.1695 82.3976L87.0337 93.6343C86.9767 93.7381 86.864 93.7977 86.7473 93.7886L75.4412 92.8208L63.5416 105.564C63.482 105.629 63.403 105.66 63.3226 105.66Z" fill="#05061A"></path><path d="M115.239 70.6714L108.582 73.4569L114.03 77.3867L115.239 70.6714Z" fill="#05061A"></path><path d="M114.029 105.659H59.6965C59.5319 105.659 59.3984 105.526 59.3984 105.361V66.0865C59.3984 65.9217 59.5319 65.7881 59.6965 65.7881C59.861 65.7881 59.9945 65.9217 59.9945 66.0865V105.063H114.029C114.194 105.063 114.327 105.196 114.327 105.361C114.327 105.526 114.194 105.659 114.029 105.659Z" fill="#05061A"></path><path d="M200.21 70.8777V153.555C200.21 156.201 198.067 158.346 195.425 158.346H134.03C131.387 158.346 129.244 156.201 129.244 153.555V70.8777C129.244 68.2323 131.387 66.0864 134.03 66.0864H195.425C198.067 66.0864 200.21 68.2323 200.21 70.8777Z" fill="white"></path><path d="M200.21 70.8777V78.4233H129.242V70.8777C129.242 68.2323 131.385 66.0864 134.028 66.0864H195.423C198.066 66.0864 200.21 68.2323 200.21 70.8777Z" fill="#EDE9F1"></path><path d="M192.968 73.4214C193.612 72.7774 193.612 71.7333 192.968 71.0894C192.325 70.4454 191.282 70.4454 190.639 71.0894C189.996 71.7333 189.996 72.7774 190.639 73.4214C191.282 74.0653 192.325 74.0653 192.968 73.4214Z" fill="#5A5A64"></path><path d="M188.302 73.4214C188.946 72.7774 188.946 71.7333 188.302 71.0894C187.659 70.4454 186.616 70.4454 185.973 71.0894C185.33 71.7333 185.33 72.7774 185.973 73.4214C186.616 74.0653 187.659 74.0653 188.302 73.4214Z" fill="#5A5A64"></path><path d="M184.084 72.6487C184.293 71.7624 183.745 70.8743 182.86 70.665C181.975 70.4557 181.088 71.0045 180.878 71.8908C180.669 72.7771 181.218 73.6653 182.103 73.8745C182.988 74.0838 183.875 73.535 184.084 72.6487Z" fill="#5A5A64"></path><path d="M186.425 109.829H143.029C140.396 109.829 138.262 107.692 138.262 105.056V89.7145C138.262 87.0782 140.396 84.9414 143.029 84.9414H186.425C189.058 84.9414 191.192 87.0782 191.192 89.7145V105.056C191.192 107.691 189.058 109.829 186.425 109.829Z" fill="#CFA9FF"></path><path d="M171.554 118.539H139.5C138.819 118.539 138.263 117.981 138.263 117.3V117.064C138.263 116.381 138.82 115.825 139.5 115.825H171.554C172.235 115.825 172.791 116.383 172.791 117.064V117.3C172.791 117.981 172.234 118.539 171.554 118.539Z" fill="#5A5A64"></path><path d="M171.554 124.331H139.5C138.819 124.331 138.263 123.773 138.263 123.092V122.856C138.263 122.174 138.82 121.617 139.5 121.617H171.554C172.235 121.617 172.791 122.175 172.791 122.856V123.092C172.791 123.773 172.234 124.331 171.554 124.331Z" fill="#5A5A64"></path><path d="M171.554 130.123H139.5C138.819 130.123 138.263 129.565 138.263 128.884V128.648C138.263 127.966 138.82 127.409 139.5 127.409H171.554C172.235 127.409 172.791 127.967 172.791 128.648V128.884C172.791 129.565 172.234 130.123 171.554 130.123Z" fill="#5A5A64"></path><path d="M173.502 151.989H155.952V152.804H173.502V151.989Z" fill="#05061A"></path></svg>